<?xml version="1.0" encoding="UTF-8"?>
<svg version="1.1" viewBox="0 0 96 94.667" xml:space="preserve" xmlns="http://www.w3.org/2000/svg" xmlns:cc="http://creativecommons.org/ns#" xmlns:dc="http://purl.org/dc/elements/1.1/" xmlns:rdf="http://www.w3.org/1999/02/22-rdf-syntax-ns#" xmlns:xlink="http://www.w3.org/1999/xlink"><metadata><rdf:RDF><cc:Work rdf:about=""><dc:format>image/svg+xml</dc:format><dc:type rdf:resource="http://purl.org/dc/dcmitype/StillImage"/><dc:title/></cc:Work></rdf:RDF></metadata><defs><linearGradient id="linearGradient1738" x1="457200" x2="457200" y2="901700" gradientTransform="matrix(7.874e-5 0 0 -7.874e-5 0 71)" gradientUnits="userSpaceOnUse"><stop stop-color="#c0c0c0" offset="0"/><stop stop-color="#f2f2f2" offset="1"/></linearGradient><linearGradient id="linearGradient1756" x1="412750" x2="412750" y1="-825500" gradientTransform="matrix(7.874e-5 0 0 -7.874e-5 4 68)" gradientUnits="userSpaceOnUse"><stop stop-color="#777272" offset="0"/><stop stop-color="#383535" offset="1"/></linearGradient><linearGradient id="linearGradient1766" x1="412750" x2="412750" y2="825500" gradientTransform="matrix(7.874e-5 0 0 -7.874e-5 4 68)" gradientUnits="userSpaceOnUse"><stop stop-color="#383535" offset="0"/><stop stop-color="#777272" offset="1"/></linearGradient><linearGradient id="linearGradient1776" x1="412750" x2="412750" y1="825500" y2="1651000" gradientTransform="matrix(7.874e-5 0 0 -7.874e-5 4 68)" gradientUnits="userSpaceOnUse"><stop stop-color="#777272" offset="0"/><stop stop-color="#383535" offset="1"/></linearGradient><linearGradient id="linearGradient1794" x1="368300" x2="368300" y1="-749300" gradientTransform="matrix(7.874e-5 0 0 -7.874e-5 7 65)" gradientUnits="userSpaceOnUse"><stop stop-color="#3d3d3d" offset="0"/><stop offset="1"/></linearGradient><linearGradient id="linearGradient1804" x1="368300" x2="368300" y2="749300" gradientTransform="matrix(7.874e-5 0 0 -7.874e-5 7 65)" gradientUnits="userSpaceOnUse"><stop offset="0"/><stop stop-color="#3d3d3d" offset="1"/></linearGradient><linearGradient id="linearGradient1666" x1="36.784" x2="36.784" y1="9.2143" y2="41.391" gradientTransform="translate(-.21157 -71.676)" gradientUnits="userSpaceOnUse"><stop stop-color="#c8c8c8" offset="0"/><stop stop-color="#c8c8c8" stop-opacity="0" offset="1"/></linearGradient></defs><g transform="matrix(1.3333 0 0 -1.3333 0 94.667)"><path d="m0 35.5c0 19.606 16.118 35.5 36 35.5s36-15.894 36-35.5-16.118-35.5-36-35.5-36 15.894-36 35.5z" fill="url(#linearGradient1738)"/><path d="m4 35.5c0 17.949 14.551 32.5 32.5 32.5s32.5-14.551 32.5-32.5-14.551-32.5-32.5-32.5-32.5 14.551-32.5 32.5z" fill="url(#linearGradient1756)"/><path d="m4 35.5c0 17.949 14.551 32.5 32.5 32.5s32.5-14.551 32.5-32.5-14.551-32.5-32.5-32.5-32.5 14.551-32.5 32.5z" fill="url(#linearGradient1766)"/><path d="m4 35.5c0 17.949 14.551 32.5 32.5 32.5s32.5-14.551 32.5-32.5-14.551-32.5-32.5-32.5-32.5 14.551-32.5 32.5z" fill="url(#linearGradient1776)"/><path d="m7 35.5c0 16.292 12.984 29.5 29 29.5s29-13.208 29-29.5-12.984-29.5-29-29.5-29 13.208-29 29.5z" fill="url(#linearGradient1794)"/><path d="m7 35.5c0 16.292 12.984 29.5 29 29.5s29-13.208 29-29.5-12.984-29.5-29-29.5-29 13.208-29 29.5z" fill="url(#linearGradient1804)"/><ellipse transform="scale(1,-1)" cx="36.573" cy="-46.373" rx="20.111" ry="16.088" fill="url(#linearGradient1666)" fill-rule="evenodd"/></g></svg>
